STARTFONT 2.1
FONT -misc-Darn-Medium-R-Normal--19-190-72-72-C-90-ISO10646-1
SIZE 19 72 72
FONTBOUNDINGBOX 34 19 -25 -4
COMMENT "Generated by fontforge, http://fontforge.sourceforge.net"
STARTPROPERTIES 17
FAMILY_NAME "Darn"
WEIGHT_NAME "Medium"
SLANT "R"
SETWIDTH_NAME "Normal"
FONT_NAME "DarnMedium"
FACE_NAME "Darn Medium"
FONT_VERSION "000.100"
COPYRIGHT "Copyright (c) 2020, Gabriel Holodak"
PIXEL_SIZE 19
POINT_SIZE 190
RESOLUTION_X 72
RESOLUTION_Y 72
AVERAGE_WIDTH 90
FONT_ASCENT 15
FONT_DESCENT 4
CAP_HEIGHT 12
X_HEIGHT 9
ENDPROPERTIES
CHARS 210
STARTCHAR space
ENCODING 32
SWIDTH 473 0
DWIDTH 9 0
BBX 1 1 4 0
BITMAP
00
ENDCHAR
STARTCHAR exclam
ENCODING 33
SWIDTH 473 0
DWIDTH 9 0
BBX 1 12 4 0
BITMAP
80
80
80
80
80
80
80
80
00
80
80
80
ENDCHAR
STARTCHAR quotedbl
ENCODING 34
SWIDTH 473 0
DWIDTH 9 0
BBX 4 4 3 9
BITMAP
90
90
90
90
ENDCHAR
STARTCHAR numbersign
ENCODING 35
SWIDTH 473 0
DWIDTH 9 0
BBX 6 12 2 0
BITMAP
48
48
48
FC
48
48
48
48
FC
48
48
48
ENDCHAR
STARTCHAR dollar
ENCODING 36
SWIDTH 473 0
DWIDTH 9 0
BBX 7 14 1 -1
BITMAP
10
7C
92
90
90
90
70
1C
12
12
12
92
7C
10
ENDCHAR
STARTCHAR percent
ENCODING 37
SWIDTH 473 0
DWIDTH 9 0
BBX 7 12 1 0
BITMAP
60
92
94
94
68
10
10
2C
52
52
92
0C
ENDCHAR
STARTCHAR ampersand
ENCODING 38
SWIDTH 473 0
DWIDTH 9 0
BBX 7 12 1 0
BITMAP
30
48
48
48
30
20
50
92
8A
84
8C
72
ENDCHAR
STARTCHAR quotesingle
ENCODING 39
SWIDTH 473 0
DWIDTH 9 0
BBX 1 4 4 9
BITMAP
80
80
80
80
ENDCHAR
STARTCHAR parenleft
ENCODING 40
SWIDTH 473 0
DWIDTH 9 0
BBX 4 14 3 -1
BITMAP
10
20
40
40
80
80
80
80
80
80
40
40
20
10
ENDCHAR
STARTCHAR parenright
ENCODING 41
SWIDTH 473 0
DWIDTH 9 0
BBX 4 14 2 -1
BITMAP
80
40
20
20
10
10
10
10
10
10
20
20
40
80
ENDCHAR
STARTCHAR asterisk
ENCODING 42
SWIDTH 473 0
DWIDTH 9 0
BBX 7 7 1 3
BITMAP
10
92
54
38
54
92
10
ENDCHAR
STARTCHAR plus
ENCODING 43
SWIDTH 473 0
DWIDTH 9 0
BBX 7 7 1 2
BITMAP
10
10
10
FE
10
10
10
ENDCHAR
STARTCHAR comma
ENCODING 44
SWIDTH 473 0
DWIDTH 9 0
BBX 2 5 4 -2
BITMAP
C0
40
40
40
80
ENDCHAR
STARTCHAR hyphen
ENCODING 45
SWIDTH 473 0
DWIDTH 9 0
BBX 6 1 2 5
BITMAP
FC
ENDCHAR
STARTCHAR period
ENCODING 46
SWIDTH 473 0
DWIDTH 9 0
BBX 2 2 4 0
BITMAP
C0
C0
ENDCHAR
STARTCHAR slash
ENCODING 47
SWIDTH 473 0
DWIDTH 9 0
BBX 6 12 2 0
BITMAP
04
04
08
08
10
10
20
20
40
40
80
80
ENDCHAR
STARTCHAR zero
ENCODING 48
SWIDTH 500 0
DWIDTH 9 0
BBX 7 12 1 0
BITMAP
38
44
44
8A
8A
92
92
A2
A2
44
44
38
ENDCHAR
STARTCHAR one
ENCODING 49
SWIDTH 500 0
DWIDTH 9 0
BBX 7 12 1 0
BITMAP
10
30
50
90
10
10
10
10
10
10
10
FE
ENDCHAR
STARTCHAR two
ENCODING 50
SWIDTH 500 0
DWIDTH 9 0
BBX 7 12 1 0
BITMAP
38
44
82
02
02
04
08
10
20
40
80
FE
ENDCHAR
STARTCHAR three
ENCODING 51
SWIDTH 500 0
DWIDTH 9 0
BBX 7 12 1 0
BITMAP
78
84
02
02
04
38
04
02
02
02
84
78
ENDCHAR
STARTCHAR four
ENCODING 52
SWIDTH 500 0
DWIDTH 9 0
BBX 7 12 1 0
BITMAP
04
0C
14
24
44
84
84
FE
04
04
04
04
ENDCHAR
STARTCHAR five
ENCODING 53
SWIDTH 500 0
DWIDTH 9 0
BBX 7 12 1 0
BITMAP
FE
80
80
80
80
F8
04
02
02
02
84
78
ENDCHAR
STARTCHAR six
ENCODING 54
SWIDTH 500 0
DWIDTH 9 0
BBX 7 12 1 0
BITMAP
3C
42
80
80
80
B8
C4
82
82
82
44
38
ENDCHAR
STARTCHAR seven
ENCODING 55
SWIDTH 500 0
DWIDTH 9 0
BBX 7 12 1 0
BITMAP
FE
02
02
04
08
08
08
10
10
10
10
10
ENDCHAR
STARTCHAR eight
ENCODING 56
SWIDTH 500 0
DWIDTH 9 0
BBX 7 12 1 0
BITMAP
38
44
82
82
44
38
44
82
82
82
44
38
ENDCHAR
STARTCHAR nine
ENCODING 57
SWIDTH 500 0
DWIDTH 9 0
BBX 7 12 1 0
BITMAP
38
44
82
82
82
46
3A
02
02
02
84
78
ENDCHAR
STARTCHAR colon
ENCODING 58
SWIDTH 473 0
DWIDTH 9 0
BBX 2 7 4 3
BITMAP
C0
C0
00
00
00
C0
C0
ENDCHAR
STARTCHAR semicolon
ENCODING 59
SWIDTH 473 0
DWIDTH 9 0
BBX 2 12 4 -2
BITMAP
C0
C0
00
00
00
00
00
C0
40
40
40
80
ENDCHAR
STARTCHAR less
ENCODING 60
SWIDTH 473 0
DWIDTH 9 0
BBX 6 11 2 1
BITMAP
04
08
10
20
40
80
40
20
10
08
04
ENDCHAR
STARTCHAR equal
ENCODING 61
SWIDTH 473 0
DWIDTH 9 0
BBX 6 6 2 3
BITMAP
FC
00
00
00
00
FC
ENDCHAR
STARTCHAR greater
ENCODING 62
SWIDTH 473 0
DWIDTH 9 0
BBX 6 11 2 1
BITMAP
80
40
20
10
08
04
08
10
20
40
80
ENDCHAR
STARTCHAR question
ENCODING 63
SWIDTH 473 0
DWIDTH 9 0
BBX 7 12 1 0
BITMAP
38
44
82
02
02
04
08
10
10
00
10
10
ENDCHAR
STARTCHAR at
ENCODING 64
SWIDTH 1000 0
DWIDTH 9 0
BBX 7 12 1 0
BITMAP
38
44
92
AA
AA
AA
AA
AA
AA
94
40
3C
ENDCHAR
STARTCHAR A
ENCODING 65
SWIDTH 473 0
DWIDTH 9 0
BBX 7 12 1 0
BITMAP
10
10
28
28
44
44
82
FE
82
82
82
82
ENDCHAR
STARTCHAR B
ENCODING 66
SWIDTH 473 0
DWIDTH 9 0
BBX 7 12 1 0
BITMAP
F8
84
82
82
84
F8
84
82
82
82
84
F8
ENDCHAR
STARTCHAR C
ENCODING 67
SWIDTH 473 0
DWIDTH 9 0
BBX 7 12 1 0
BITMAP
38
44
82
80
80
80
80
80
80
82
44
38
ENDCHAR
STARTCHAR D
ENCODING 68
SWIDTH 473 0
DWIDTH 9 0
BBX 7 12 1 0
BITMAP
F0
88
84
82
82
82
82
82
82
84
88
F0
ENDCHAR
STARTCHAR E
ENCODING 69
SWIDTH 473 0
DWIDTH 9 0
BBX 7 12 1 0
BITMAP
FE
80
80
80
80
FC
80
80
80
80
80
FE
ENDCHAR
STARTCHAR F
ENCODING 70
SWIDTH 473 0
DWIDTH 9 0
BBX 7 12 1 0
BITMAP
FE
80
80
80
80
FC
80
80
80
80
80
80
ENDCHAR
STARTCHAR G
ENCODING 71
SWIDTH 473 0
DWIDTH 9 0
BBX 7 12 1 0
BITMAP
38
44
82
80
80
80
8E
82
82
82
46
3A
ENDCHAR
STARTCHAR H
ENCODING 72
SWIDTH 473 0
DWIDTH 9 0
BBX 7 12 1 0
BITMAP
82
82
82
82
82
FE
82
82
82
82
82
82
ENDCHAR
STARTCHAR I
ENCODING 73
SWIDTH 473 0
DWIDTH 9 0
BBX 7 12 1 0
BITMAP
FE
10
10
10
10
10
10
10
10
10
10
FE
ENDCHAR
STARTCHAR J
ENCODING 74
SWIDTH 473 0
DWIDTH 9 0
BBX 8 12 1 0
BITMAP
1F
02
02
02
02
02
02
02
02
82
44
38
ENDCHAR
STARTCHAR K
ENCODING 75
SWIDTH 473 0
DWIDTH 9 0
BBX 7 12 1 0
BITMAP
82
84
88
90
A0
C0
C0
A0
90
88
84
82
ENDCHAR
STARTCHAR L
ENCODING 76
SWIDTH 473 0
DWIDTH 9 0
BBX 7 12 1 0
BITMAP
80
80
80
80
80
80
80
80
80
80
80
FE
ENDCHAR
STARTCHAR M
ENCODING 77
SWIDTH 473 0
DWIDTH 9 0
BBX 7 12 1 0
BITMAP
82
82
C6
C6
AA
AA
92
92
82
82
82
82
ENDCHAR
STARTCHAR N
ENCODING 78
SWIDTH 473 0
DWIDTH 9 0
BBX 7 12 1 0
BITMAP
82
82
C2
A2
A2
92
92
8A
8A
86
82
82
ENDCHAR
STARTCHAR O
ENCODING 79
SWIDTH 473 0
DWIDTH 9 0
BBX 7 12 1 0
BITMAP
38
44
82
82
82
82
82
82
82
82
44
38
ENDCHAR
STARTCHAR P
ENCODING 80
SWIDTH 473 0
DWIDTH 9 0
BBX 7 12 1 0
BITMAP
F8
84
82
82
82
84
F8
80
80
80
80
80
ENDCHAR
STARTCHAR Q
ENCODING 81
SWIDTH 473 0
DWIDTH 9 0
BBX 7 13 1 -1
BITMAP
38
44
82
82
82
82
82
82
82
92
6C
38
06
ENDCHAR
STARTCHAR R
ENCODING 82
SWIDTH 473 0
DWIDTH 9 0
BBX 7 12 1 0
BITMAP
F8
84
82
82
82
84
F8
88
84
84
82
82
ENDCHAR
STARTCHAR S
ENCODING 83
SWIDTH 473 0
DWIDTH 9 0
BBX 7 12 1 0
BITMAP
38
44
82
80
40
30
0C
02
02
82
44
38
ENDCHAR
STARTCHAR T
ENCODING 84
SWIDTH 473 0
DWIDTH 9 0
BBX 7 12 1 0
BITMAP
FE
10
10
10
10
10
10
10
10
10
10
10
ENDCHAR
STARTCHAR U
ENCODING 85
SWIDTH 473 0
DWIDTH 9 0
BBX 7 12 1 0
BITMAP
82
82
82
82
82
82
82
82
82
82
44
38
ENDCHAR
STARTCHAR V
ENCODING 86
SWIDTH 473 0
DWIDTH 9 0
BBX 7 12 1 0
BITMAP
82
82
82
82
82
82
44
44
28
28
10
10
ENDCHAR
STARTCHAR W
ENCODING 87
SWIDTH 473 0
DWIDTH 9 0
BBX 7 12 1 0
BITMAP
82
82
82
82
82
82
92
92
AA
AA
44
44
ENDCHAR
STARTCHAR X
ENCODING 88
SWIDTH 473 0
DWIDTH 9 0
BBX 7 12 1 0
BITMAP
82
82
44
44
28
10
10
28
44
44
82
82
ENDCHAR
STARTCHAR Y
ENCODING 89
SWIDTH 473 0
DWIDTH 9 0
BBX 7 12 1 0
BITMAP
82
82
82
82
44
28
10
10
10
10
10
10
ENDCHAR
STARTCHAR Z
ENCODING 90
SWIDTH 473 0
DWIDTH 9 0
BBX 7 12 1 0
BITMAP
FE
02
04
04
08
10
10
20
40
40
80
FE
ENDCHAR
STARTCHAR bracketleft
ENCODING 91
SWIDTH 473 0
DWIDTH 9 0
BBX 4 14 3 -1
BITMAP
F0
80
80
80
80
80
80
80
80
80
80
80
80
F0
ENDCHAR
STARTCHAR backslash
ENCODING 92
SWIDTH 473 0
DWIDTH 9 0
BBX 6 12 2 0
BITMAP
80
80
40
40
20
20
10
10
08
08
04
04
ENDCHAR
STARTCHAR bracketright
ENCODING 93
SWIDTH 473 0
DWIDTH 9 0
BBX 4 14 2 -1
BITMAP
F0
10
10
10
10
10
10
10
10
10
10
10
10
F0
ENDCHAR
STARTCHAR asciicircum
ENCODING 94
SWIDTH 473 0
DWIDTH 9 0
BBX 7 4 1 9
BITMAP
10
28
44
82
ENDCHAR
STARTCHAR underscore
ENCODING 95
SWIDTH 473 0
DWIDTH 9 0
BBX 7 1 1 -1
BITMAP
FE
ENDCHAR
STARTCHAR grave
ENCODING 96
SWIDTH 473 0
DWIDTH 9 0
BBX 4 4 3 9
BITMAP
80
40
20
10
ENDCHAR
STARTCHAR a
ENCODING 97
SWIDTH 473 0
DWIDTH 9 0
BBX 7 9 1 0
BITMAP
7C
82
02
02
7E
82
82
82
7E
ENDCHAR
STARTCHAR b
ENCODING 98
SWIDTH 473 0
DWIDTH 9 0
BBX 7 13 1 0
BITMAP
80
80
80
80
F8
84
82
82
82
82
82
84
F8
ENDCHAR
STARTCHAR c
ENCODING 99
SWIDTH 473 0
DWIDTH 9 0
BBX 7 9 1 0
BITMAP
38
44
82
80
80
80
82
44
38
ENDCHAR
STARTCHAR d
ENCODING 100
SWIDTH 473 0
DWIDTH 9 0
BBX 7 13 1 0
BITMAP
02
02
02
02
3E
42
82
82
82
82
82
42
3E
ENDCHAR
STARTCHAR e
ENCODING 101
SWIDTH 473 0
DWIDTH 9 0
BBX 7 9 1 0
BITMAP
38
44
82
82
FE
80
80
42
3C
ENDCHAR
STARTCHAR f
ENCODING 102
SWIDTH 473 0
DWIDTH 9 0
BBX 7 13 1 0
BITMAP
0E
10
20
20
FC
20
20
20
20
20
20
20
20
ENDCHAR
STARTCHAR g
ENCODING 103
SWIDTH 473 0
DWIDTH 9 0
BBX 7 13 1 -4
BITMAP
3E
42
82
82
82
82
82
42
3E
02
02
04
78
ENDCHAR
STARTCHAR h
ENCODING 104
SWIDTH 473 0
DWIDTH 9 0
BBX 7 13 1 0
BITMAP
80
80
80
80
F8
84
82
82
82
82
82
82
82
ENDCHAR
STARTCHAR i
ENCODING 105
SWIDTH 473 0
DWIDTH 9 0
BBX 5 13 2 0
BITMAP
20
20
00
00
E0
20
20
20
20
20
20
20
18
ENDCHAR
STARTCHAR j
ENCODING 106
SWIDTH 473 0
DWIDTH 9 0
BBX 6 17 1 -4
BITMAP
04
04
00
00
1C
04
04
04
04
04
04
04
04
04
04
88
70
ENDCHAR
STARTCHAR k
ENCODING 107
SWIDTH 473 0
DWIDTH 9 0
BBX 6 13 1 0
BITMAP
80
80
80
80
84
88
90
A0
C0
A0
90
88
84
ENDCHAR
STARTCHAR l
ENCODING 108
SWIDTH 473 0
DWIDTH 9 0
BBX 6 13 2 0
BITMAP
E0
20
20
20
20
20
20
20
20
20
20
20
1C
ENDCHAR
STARTCHAR m
ENCODING 109
SWIDTH 473 0
DWIDTH 9 0
BBX 7 9 1 0
BITMAP
EC
92
92
92
92
92
92
92
92
ENDCHAR
STARTCHAR n
ENCODING 110
SWIDTH 473 0
DWIDTH 9 0
BBX 6 9 2 0
BITMAP
F8
84
84
84
84
84
84
84
84
ENDCHAR
STARTCHAR o
ENCODING 111
SWIDTH 473 0
DWIDTH 9 0
BBX 7 9 1 0
BITMAP
38
44
82
82
82
82
82
44
38
ENDCHAR
STARTCHAR p
ENCODING 112
SWIDTH 473 0
DWIDTH 9 0
BBX 7 13 1 -4
BITMAP
F8
84
82
82
82
82
82
84
F8
80
80
80
80
ENDCHAR
STARTCHAR q
ENCODING 113
SWIDTH 473 0
DWIDTH 9 0
BBX 7 13 1 -4
BITMAP
3E
42
82
82
82
82
82
42
3E
02
02
02
02
ENDCHAR
STARTCHAR r
ENCODING 114
SWIDTH 473 0
DWIDTH 9 0
BBX 7 9 1 0
BITMAP
BC
C2
80
80
80
80
80
80
80
ENDCHAR
STARTCHAR s
ENCODING 115
SWIDTH 473 0
DWIDTH 9 0
BBX 7 9 1 0
BITMAP
7C
82
80
80
7C
02
02
82
7C
ENDCHAR
STARTCHAR t
ENCODING 116
SWIDTH 473 0
DWIDTH 9 0
BBX 7 13 1 0
BITMAP
20
20
20
20
FC
20
20
20
20
20
20
10
0E
ENDCHAR
STARTCHAR u
ENCODING 117
SWIDTH 473 0
DWIDTH 9 0
BBX 7 9 1 0
BITMAP
82
82
82
82
82
82
82
42
3E
ENDCHAR
STARTCHAR v
ENCODING 118
SWIDTH 473 0
DWIDTH 9 0
BBX 7 9 1 0
BITMAP
82
82
82
44
44
28
28
10
10
ENDCHAR
STARTCHAR w
ENCODING 119
SWIDTH 473 0
DWIDTH 9 0
BBX 7 9 1 0
BITMAP
82
82
82
92
92
AA
AA
44
44
ENDCHAR
STARTCHAR x
ENCODING 120
SWIDTH 473 0
DWIDTH 9 0
BBX 7 9 1 0
BITMAP
82
82
44
28
10
28
44
82
82
ENDCHAR
STARTCHAR y
ENCODING 121
SWIDTH 473 0
DWIDTH 9 0
BBX 7 13 1 -4
BITMAP
82
82
82
82
82
82
82
42
3E
02
02
04
78
ENDCHAR
STARTCHAR z
ENCODING 122
SWIDTH 473 0
DWIDTH 9 0
BBX 7 9 1 0
BITMAP
FE
02
04
08
10
20
40
80
FE
ENDCHAR
STARTCHAR braceleft
ENCODING 123
SWIDTH 473 0
DWIDTH 9 0
BBX 5 15 2 -1
BITMAP
38
40
40
40
20
20
20
C0
20
20
20
40
40
40
38
ENDCHAR
STARTCHAR bar
ENCODING 124
SWIDTH 473 0
DWIDTH 9 0
BBX 1 14 4 -1
BITMAP
80
80
80
80
80
80
80
80
80
80
80
80
80
80
ENDCHAR
STARTCHAR braceright
ENCODING 125
SWIDTH 473 0
DWIDTH 9 0
BBX 5 15 2 -1
BITMAP
E0
10
10
10
20
20
20
18
20
20
20
10
10
10
E0
ENDCHAR
STARTCHAR asciitilde
ENCODING 126
SWIDTH 473 0
DWIDTH 9 0
BBX 7 3 1 6
BITMAP
62
92
8C
ENDCHAR
STARTCHAR uni00A0
ENCODING 160
SWIDTH 1000 0
DWIDTH 9 0
BBX 1 1 6 0
BITMAP
00
ENDCHAR
STARTCHAR exclamdown
ENCODING 161
SWIDTH 473 0
DWIDTH 9 0
BBX 1 12 4 -3
BITMAP
80
80
80
00
80
80
80
80
80
80
80
80
ENDCHAR
STARTCHAR cent
ENCODING 162
SWIDTH 473 0
DWIDTH 9 0
BBX 7 13 1 -2
BITMAP
10
10
38
54
92
90
90
90
92
54
38
10
10
ENDCHAR
STARTCHAR sterling
ENCODING 163
SWIDTH 473 0
DWIDTH 9 0
BBX 7 12 1 0
BITMAP
1C
22
20
20
20
FC
20
20
20
20
40
FE
ENDCHAR
STARTCHAR currency
ENCODING 164
SWIDTH 473 0
DWIDTH 9 0
BBX 7 7 1 2
BITMAP
BA
44
82
82
82
44
BA
ENDCHAR
STARTCHAR yen
ENCODING 165
SWIDTH 1000 0
DWIDTH 9 0
BBX 7 12 1 0
BITMAP
82
82
82
82
44
28
FE
10
FE
10
10
10
ENDCHAR
STARTCHAR brokenbar
ENCODING 166
SWIDTH 473 0
DWIDTH 9 0
BBX 1 14 4 -1
BITMAP
80
80
80
80
80
80
00
00
80
80
80
80
80
80
ENDCHAR
STARTCHAR section
ENCODING 167
SWIDTH 473 0
DWIDTH 9 0
BBX 5 13 2 -1
BITMAP
70
88
80
80
40
A0
90
48
28
10
08
88
70
ENDCHAR
STARTCHAR dieresis
ENCODING 168
SWIDTH 473 0
DWIDTH 9 0
BBX 3 2 3 11
BITMAP
A0
A0
ENDCHAR
STARTCHAR copyright
ENCODING 169
SWIDTH 473 0
DWIDTH 9 0
BBX 8 11 1 1
BITMAP
3C
42
99
A5
A1
A1
A1
A5
99
42
3C
ENDCHAR
STARTCHAR ordfeminine
ENCODING 170
SWIDTH 473 0
DWIDTH 9 0
BBX 5 8 2 5
BITMAP
70
08
78
88
88
78
00
F8
ENDCHAR
STARTCHAR guillemotleft
ENCODING 171
SWIDTH 473 0
DWIDTH 9 0
BBX 7 7 1 3
BITMAP
12
24
48
90
48
24
12
ENDCHAR
STARTCHAR logicalnot
ENCODING 172
SWIDTH 473 0
DWIDTH 9 0
BBX 7 3 1 3
BITMAP
FE
02
02
ENDCHAR
STARTCHAR uni00AD
ENCODING 173
SWIDTH 473 0
DWIDTH 9 0
BBX 6 1 2 5
BITMAP
FC
ENDCHAR
STARTCHAR registered
ENCODING 174
SWIDTH 473 0
DWIDTH 9 0
BBX 8 11 1 1
BITMAP
3C
42
B9
A5
A5
B9
A5
A5
A5
42
3C
ENDCHAR
STARTCHAR macron
ENCODING 175
SWIDTH 473 0
DWIDTH 9 0
BBX 5 1 2 12
BITMAP
F8
ENDCHAR
STARTCHAR degree
ENCODING 176
SWIDTH 473 0
DWIDTH 9 0
BBX 5 5 2 8
BITMAP
70
88
88
88
70
ENDCHAR
STARTCHAR plusminus
ENCODING 177
SWIDTH 473 0
DWIDTH 9 0
BBX 7 9 1 0
BITMAP
10
10
10
FE
10
10
10
00
FE
ENDCHAR
STARTCHAR uni00B2
ENCODING 178
SWIDTH 473 0
DWIDTH 9 0
BBX 5 7 2 7
BITMAP
70
88
08
10
20
40
F8
ENDCHAR
STARTCHAR uni00B3
ENCODING 179
SWIDTH 473 0
DWIDTH 9 0
BBX 5 7 2 7
BITMAP
F0
08
08
70
08
08
F0
ENDCHAR
STARTCHAR acute
ENCODING 180
SWIDTH 473 0
DWIDTH 9 0
BBX 3 3 3 10
BITMAP
20
40
80
ENDCHAR
STARTCHAR mu
ENCODING 181
SWIDTH 473 0
DWIDTH 9 0
BBX 8 13 1 -4
BITMAP
82
82
82
82
82
82
82
C6
B9
80
80
80
80
ENDCHAR
STARTCHAR paragraph
ENCODING 182
SWIDTH 473 0
DWIDTH 9 0
BBX 7 12 1 0
BITMAP
3E
7A
FA
FA
FA
7A
3A
0A
0A
0A
0A
0A
ENDCHAR
STARTCHAR periodcentered
ENCODING 183
SWIDTH 473 0
DWIDTH 9 0
BBX 2 2 4 5
BITMAP
C0
C0
ENDCHAR
STARTCHAR cedilla
ENCODING 184
SWIDTH 473 0
DWIDTH 9 0
BBX 3 4 3 -4
BITMAP
40
20
20
C0
ENDCHAR
STARTCHAR uni00B9
ENCODING 185
SWIDTH 473 0
DWIDTH 9 0
BBX 5 7 2 7
BITMAP
20
60
A0
20
20
20
F8
ENDCHAR
STARTCHAR ordmasculine
ENCODING 186
SWIDTH 473 0
DWIDTH 9 0
BBX 5 8 2 5
BITMAP
70
88
88
88
88
70
00
F8
ENDCHAR
STARTCHAR guillemotright
ENCODING 187
SWIDTH 473 0
DWIDTH 9 0
BBX 7 7 1 3
BITMAP
90
48
24
12
24
48
90
ENDCHAR
STARTCHAR onequarter
ENCODING 188
SWIDTH 473 0
DWIDTH 9 0
BBX 7 16 1 -2
BITMAP
20
60
A0
20
20
22
F4
08
10
24
4C
94
24
3E
04
04
ENDCHAR
STARTCHAR onehalf
ENCODING 189
SWIDTH 473 0
DWIDTH 9 0
BBX 8 16 1 -2
BITMAP
20
60
A0
20
20
22
F4
08
10
2E
51
81
02
04
08
1F
ENDCHAR
STARTCHAR threequarters
ENCODING 190
SWIDTH 473 0
DWIDTH 9 0
BBX 7 16 1 -2
BITMAP
F0
08
08
70
08
0A
F4
08
10
24
4C
94
24
3E
04
04
ENDCHAR
STARTCHAR questiondown
ENCODING 191
SWIDTH 473 0
DWIDTH 9 0
BBX 7 12 1 -3
BITMAP
10
10
00
10
10
20
40
80
80
82
44
38
ENDCHAR
STARTCHAR Agrave
ENCODING 192
SWIDTH 1000 0
DWIDTH 9 0
BBX 7 15 1 0
BITMAP
20
10
00
10
10
28
28
44
44
82
FE
82
82
82
82
ENDCHAR
STARTCHAR Aacute
ENCODING 193
SWIDTH 1000 0
DWIDTH 9 0
BBX 7 15 1 0
BITMAP
08
10
00
10
10
28
28
44
44
82
FE
82
82
82
82
ENDCHAR
STARTCHAR Acircumflex
ENCODING 194
SWIDTH 1000 0
DWIDTH 9 0
BBX 7 15 1 0
BITMAP
10
28
00
10
10
28
28
44
44
82
FE
82
82
82
82
ENDCHAR
STARTCHAR Atilde
ENCODING 195
SWIDTH 1000 0
DWIDTH 9 0
BBX 7 15 1 0
BITMAP
32
4C
00
10
10
28
28
44
44
82
FE
82
82
82
82
ENDCHAR
STARTCHAR Adieresis
ENCODING 196
SWIDTH 1000 0
DWIDTH 9 0
BBX 7 15 1 0
BITMAP
28
28
00
10
10
28
28
44
44
82
FE
82
82
82
82
ENDCHAR
STARTCHAR Aring
ENCODING 197
SWIDTH 1000 0
DWIDTH 9 0
BBX 7 15 1 0
BITMAP
10
28
28
10
10
28
28
44
44
82
FE
82
82
82
82
ENDCHAR
STARTCHAR AE
ENCODING 198
SWIDTH 1000 0
DWIDTH 9 0
BBX 7 12 1 0
BITMAP
1E
30
30
50
50
9C
90
F0
90
90
90
9E
ENDCHAR
STARTCHAR Ccedilla
ENCODING 199
SWIDTH 1000 0
DWIDTH 9 0
BBX 7 16 1 -4
BITMAP
38
44
82
80
80
80
80
80
80
82
44
38
10
08
08
30
ENDCHAR
STARTCHAR Egrave
ENCODING 200
SWIDTH 1000 0
DWIDTH 9 0
BBX 7 15 1 0
BITMAP
20
10
00
FE
80
80
80
80
FC
80
80
80
80
80
FE
ENDCHAR
STARTCHAR Eacute
ENCODING 201
SWIDTH 1000 0
DWIDTH 9 0
BBX 7 15 1 0
BITMAP
08
10
00
FE
80
80
80
80
FC
80
80
80
80
80
FE
ENDCHAR
STARTCHAR Ecircumflex
ENCODING 202
SWIDTH 1000 0
DWIDTH 9 0
BBX 7 15 1 0
BITMAP
10
28
00
FE
80
80
80
80
FC
80
80
80
80
80
FE
ENDCHAR
STARTCHAR Edieresis
ENCODING 203
SWIDTH 1000 0
DWIDTH 9 0
BBX 7 15 1 0
BITMAP
28
28
00
FE
80
80
80
80
FC
80
80
80
80
80
FE
ENDCHAR
STARTCHAR Igrave
ENCODING 204
SWIDTH 1000 0
DWIDTH 9 0
BBX 7 15 1 0
BITMAP
20
10
00
FE
10
10
10
10
10
10
10
10
10
10
FE
ENDCHAR
STARTCHAR Iacute
ENCODING 205
SWIDTH 1000 0
DWIDTH 9 0
BBX 7 15 1 0
BITMAP
08
10
00
FE
10
10
10
10
10
10
10
10
10
10
FE
ENDCHAR
STARTCHAR Icircumflex
ENCODING 206
SWIDTH 1000 0
DWIDTH 9 0
BBX 7 15 1 0
BITMAP
10
28
00
FE
10
10
10
10
10
10
10
10
10
10
FE
ENDCHAR
STARTCHAR Idieresis
ENCODING 207
SWIDTH 1000 0
DWIDTH 9 0
BBX 7 15 1 0
BITMAP
28
28
00
FE
10
10
10
10
10
10
10
10
10
10
FE
ENDCHAR
STARTCHAR Eth
ENCODING 208
SWIDTH 1000 0
DWIDTH 9 0
BBX 7 12 1 0
BITMAP
70
48
44
42
42
F2
42
42
42
44
48
70
ENDCHAR
STARTCHAR Ntilde
ENCODING 209
SWIDTH 1000 0
DWIDTH 9 0
BBX 7 15 1 0
BITMAP
32
4C
00
82
82
C2
A2
A2
92
8A
8A
86
82
82
82
ENDCHAR
STARTCHAR Ograve
ENCODING 210
SWIDTH 1000 0
DWIDTH 9 0
BBX 7 15 1 0
BITMAP
20
10
00
38
44
82
82
82
82
82
82
82
82
44
38
ENDCHAR
STARTCHAR Oacute
ENCODING 211
SWIDTH 1000 0
DWIDTH 9 0
BBX 7 15 1 0
BITMAP
08
10
00
38
44
82
82
82
82
82
82
82
82
44
38
ENDCHAR
STARTCHAR Ocircumflex
ENCODING 212
SWIDTH 473 0
DWIDTH 9 0
BBX 7 15 1 0
BITMAP
10
28
00
38
44
82
82
82
82
82
82
82
82
44
38
ENDCHAR
STARTCHAR Otilde
ENCODING 213
SWIDTH 1000 0
DWIDTH 9 0
BBX 7 15 1 0
BITMAP
32
4C
00
38
44
82
82
82
82
82
82
82
82
44
38
ENDCHAR
STARTCHAR Odieresis
ENCODING 214
SWIDTH 1000 0
DWIDTH 9 0
BBX 7 15 1 0
BITMAP
28
28
00
38
44
82
82
82
82
82
82
82
82
44
38
ENDCHAR
STARTCHAR multiply
ENCODING 215
SWIDTH 473 0
DWIDTH 9 0
BBX 7 7 1 2
BITMAP
82
44
28
10
28
44
82
ENDCHAR
STARTCHAR Oslash
ENCODING 216
SWIDTH 1000 0
DWIDTH 9 0
BBX 7 12 1 0
BITMAP
3A
44
86
8A
8A
92
92
A2
A2
C2
44
B8
ENDCHAR
STARTCHAR Ugrave
ENCODING 217
SWIDTH 1000 0
DWIDTH 9 0
BBX 7 15 1 0
BITMAP
20
10
00
82
82
82
82
82
82
82
82
82
82
44
38
ENDCHAR
STARTCHAR Uacute
ENCODING 218
SWIDTH 1000 0
DWIDTH 9 0
BBX 7 15 1 0
BITMAP
08
10
00
82
82
82
82
82
82
82
82
82
82
44
38
ENDCHAR
STARTCHAR Ucircumflex
ENCODING 219
SWIDTH 1000 0
DWIDTH 9 0
BBX 7 15 1 0
BITMAP
10
28
00
82
82
82
82
82
82
82
82
82
82
44
38
ENDCHAR
STARTCHAR Udieresis
ENCODING 220
SWIDTH 1000 0
DWIDTH 9 0
BBX 7 15 1 0
BITMAP
28
28
00
82
82
82
82
82
82
82
82
82
82
44
38
ENDCHAR
STARTCHAR Yacute
ENCODING 221
SWIDTH 1000 0
DWIDTH 9 0
BBX 7 15 1 0
BITMAP
08
10
00
82
82
82
82
44
28
10
10
10
10
10
10
ENDCHAR
STARTCHAR Thorn
ENCODING 222
SWIDTH 473 0
DWIDTH 9 0
BBX 7 12 1 0
BITMAP
80
80
F8
84
82
82
82
84
F8
80
80
80
ENDCHAR
STARTCHAR germandbls
ENCODING 223
SWIDTH 473 0
DWIDTH 9 0
BBX 7 13 1 0
BITMAP
78
84
84
84
88
90
90
88
84
82
82
A2
9C
ENDCHAR
STARTCHAR agrave
ENCODING 224
SWIDTH 1000 0
DWIDTH 9 0
BBX 7 13 1 0
BITMAP
20
10
00
00
7C
82
02
02
7E
82
82
82
7E
ENDCHAR
STARTCHAR aacute
ENCODING 225
SWIDTH 1000 0
DWIDTH 9 0
BBX 7 13 1 0
BITMAP
08
10
00
00
7C
82
02
02
7E
82
82
82
7E
ENDCHAR
STARTCHAR acircumflex
ENCODING 226
SWIDTH 1000 0
DWIDTH 9 0
BBX 7 13 1 0
BITMAP
10
28
00
00
7C
82
02
02
7E
82
82
82
7E
ENDCHAR
STARTCHAR atilde
ENCODING 227
SWIDTH 1000 0
DWIDTH 9 0
BBX 7 13 1 0
BITMAP
32
4C
00
00
7C
82
02
02
7E
82
82
82
7E
ENDCHAR
STARTCHAR adieresis
ENCODING 228
SWIDTH 1000 0
DWIDTH 9 0
BBX 7 13 1 0
BITMAP
28
28
00
00
7C
82
02
02
7E
82
82
82
7E
ENDCHAR
STARTCHAR aring
ENCODING 229
SWIDTH 1000 0
DWIDTH 9 0
BBX 7 13 1 0
BITMAP
10
28
28
10
7C
82
02
02
7E
82
82
82
7E
ENDCHAR
STARTCHAR ae
ENCODING 230
SWIDTH 473 0
DWIDTH 9 0
BBX 7 9 1 0
BITMAP
6C
92
12
12
7E
90
90
92
6C
ENDCHAR
STARTCHAR ccedilla
ENCODING 231
SWIDTH 1000 0
DWIDTH 9 0
BBX 7 13 1 -4
BITMAP
38
44
82
80
80
80
82
44
38
10
08
08
30
ENDCHAR
STARTCHAR egrave
ENCODING 232
SWIDTH 1000 0
DWIDTH 9 0
BBX 7 13 1 0
BITMAP
20
10
00
00
38
44
82
82
FE
80
80
42
3C
ENDCHAR
STARTCHAR eacute
ENCODING 233
SWIDTH 1000 0
DWIDTH 9 0
BBX 7 13 1 0
BITMAP
08
10
00
00
38
44
82
82
FE
80
80
42
3C
ENDCHAR
STARTCHAR ecircumflex
ENCODING 234
SWIDTH 1000 0
DWIDTH 9 0
BBX 7 13 1 0
BITMAP
10
28
00
00
38
44
82
82
FE
80
80
42
3C
ENDCHAR
STARTCHAR edieresis
ENCODING 235
SWIDTH 1000 0
DWIDTH 9 0
BBX 7 13 1 0
BITMAP
28
28
00
00
38
44
82
82
FE
80
80
42
3C
ENDCHAR
STARTCHAR igrave
ENCODING 236
SWIDTH 1000 0
DWIDTH 9 0
BBX 5 13 2 0
BITMAP
40
20
00
00
E0
20
20
20
20
20
20
20
18
ENDCHAR
STARTCHAR iacute
ENCODING 237
SWIDTH 1000 0
DWIDTH 9 0
BBX 5 13 2 0
BITMAP
10
20
00
00
E0
20
20
20
20
20
20
20
18
ENDCHAR
STARTCHAR icircumflex
ENCODING 238
SWIDTH 1000 0
DWIDTH 9 0
BBX 5 13 2 0
BITMAP
20
50
00
00
E0
20
20
20
20
20
20
20
18
ENDCHAR
STARTCHAR idieresis
ENCODING 239
SWIDTH 1000 0
DWIDTH 9 0
BBX 5 13 2 0
BITMAP
50
50
00
00
E0
20
20
20
20
20
20
20
18
ENDCHAR
STARTCHAR eth
ENCODING 240
SWIDTH 1000 0
DWIDTH 9 0
BBX 7 14 1 0
BITMAP
22
14
08
14
24
02
3A
46
82
82
82
82
44
38
ENDCHAR
STARTCHAR ntilde
ENCODING 241
SWIDTH 1000 0
DWIDTH 9 0
BBX 6 13 2 0
BITMAP
64
98
00
00
F8
84
84
84
84
84
84
84
84
ENDCHAR
STARTCHAR ograve
ENCODING 242
SWIDTH 1000 0
DWIDTH 9 0
BBX 7 13 1 0
BITMAP
20
10
00
00
38
44
82
82
82
82
82
44
38
ENDCHAR
STARTCHAR oacute
ENCODING 243
SWIDTH 473 0
DWIDTH 9 0
BBX 7 13 1 0
BITMAP
08
10
00
00
38
44
82
82
82
82
82
44
38
ENDCHAR
STARTCHAR ocircumflex
ENCODING 244
SWIDTH 1000 0
DWIDTH 9 0
BBX 7 13 1 0
BITMAP
10
28
00
00
38
44
82
82
82
82
82
44
38
ENDCHAR
STARTCHAR otilde
ENCODING 245
SWIDTH 473 0
DWIDTH 9 0
BBX 7 13 1 0
BITMAP
32
4C
00
00
38
44
82
82
82
82
82
44
38
ENDCHAR
STARTCHAR odieresis
ENCODING 246
SWIDTH 1000 0
DWIDTH 9 0
BBX 7 13 1 0
BITMAP
28
28
00
00
38
44
82
82
82
82
82
44
38
ENDCHAR
STARTCHAR divide
ENCODING 247
SWIDTH 473 0
DWIDTH 9 0
BBX 7 7 1 2
BITMAP
10
10
00
FE
00
10
10
ENDCHAR
STARTCHAR oslash
ENCODING 248
SWIDTH 473 0
DWIDTH 9 0
BBX 7 9 1 0
BITMAP
3A
44
8A
8A
92
A2
A2
44
B8
ENDCHAR
STARTCHAR ugrave
ENCODING 249
SWIDTH 1000 0
DWIDTH 9 0
BBX 7 13 1 0
BITMAP
20
10
00
00
82
82
82
82
82
82
82
42
3E
ENDCHAR
STARTCHAR uacute
ENCODING 250
SWIDTH 1000 0
DWIDTH 9 0
BBX 7 13 1 0
BITMAP
08
10
00
00
82
82
82
82
82
82
82
42
3E
ENDCHAR
STARTCHAR ucircumflex
ENCODING 251
SWIDTH 1000 0
DWIDTH 9 0
BBX 7 13 1 0
BITMAP
10
28
00
00
82
82
82
82
82
82
82
42
3E
ENDCHAR
STARTCHAR udieresis
ENCODING 252
SWIDTH 1000 0
DWIDTH 9 0
BBX 7 13 1 0
BITMAP
28
28
00
00
82
82
82
82
82
82
82
42
3E
ENDCHAR
STARTCHAR yacute
ENCODING 253
SWIDTH 1000 0
DWIDTH 9 0
BBX 7 17 1 -4
BITMAP
08
10
00
00
82
82
82
82
82
82
82
42
3E
02
02
04
78
ENDCHAR
STARTCHAR thorn
ENCODING 254
SWIDTH 1000 0
DWIDTH 9 0
BBX 7 17 1 -4
BITMAP
80
80
80
80
B8
C4
82
82
82
82
82
C4
B8
80
80
80
80
ENDCHAR
STARTCHAR ydieresis
ENCODING 255
SWIDTH 1000 0
DWIDTH 9 0
BBX 7 17 1 -4
BITMAP
28
28
00
00
82
82
82
82
82
82
82
42
3E
02
02
04
78
ENDCHAR
STARTCHAR lambda
ENCODING 955
SWIDTH 473 0
DWIDTH 9 0
BBX 8 12 1 0
BITMAP
E0
10
10
10
28
28
28
48
44
44
84
83
ENDCHAR
STARTCHAR uni2B61
ENCODING 11105
SWIDTH 1000 0
DWIDTH 9 0
BBX 5 12 2 1
BITMAP
20
70
F8
20
20
20
20
20
20
20
20
20
ENDCHAR
STARTCHAR uni2B63
ENCODING 11107
SWIDTH 1000 0
DWIDTH 9 0
BBX 5 12 2 0
BITMAP
20
20
20
20
20
20
20
20
20
F8
70
20
ENDCHAR
STARTCHAR uni2B81
ENCODING 11137
SWIDTH 473 0
DWIDTH 9 0
BBX 9 13 0 0
BITMAP
2000
7200
FA00
2200
2200
2200
2200
2200
2200
2200
2F80
2700
0200
ENDCHAR
STARTCHAR uni2B83
ENCODING 11139
SWIDTH 1000 0
DWIDTH 9 0
BBX 9 13 0 0
BITMAP
0200
2700
2F80
2200
2200
2200
2200
2200
2200
2200
FA00
7200
2000
ENDCHAR
STARTCHAR LIG
ENCODING -1
SWIDTH 473 0
DWIDTH 9 0
BBX 1 1 0 0
BITMAP
00
ENDCHAR
STARTCHAR hyphen_greater.liga
ENCODING -1
SWIDTH 473 0
DWIDTH 9 0
BBX 15 11 -7 1
BITMAP
0040
0020
0010
0008
0004
FFFE
0004
0008
0010
0020
0040
ENDCHAR
STARTCHAR hyphen_hyphen_greater.liga
ENCODING -1
SWIDTH 473 0
DWIDTH 9 0
BBX 24 11 -16 1
BITMAP
000020
000010
000008
000004
000002
FFFFFF
000002
000004
000008
000010
000020
ENDCHAR
STARTCHAR equal_greater.liga
ENCODING -1
SWIDTH 473 0
DWIDTH 9 0
BBX 15 11 -7 1
BITMAP
0040
0020
0010
FFF8
0004
0002
0004
FFF8
0010
0020
0040
ENDCHAR
STARTCHAR equal_equal_greater.liga
ENCODING -1
SWIDTH 473 0
DWIDTH 9 0
BBX 24 11 -16 1
BITMAP
000020
000010
000008
FFFFFC
000002
000001
000002
FFFFFC
000008
000010
000020
ENDCHAR
STARTCHAR less_equal_equal.liga
ENCODING -1
SWIDTH 473 0
DWIDTH 9 0
BBX 24 11 -16 1
BITMAP
040000
080000
100000
3FFFFF
400000
800000
400000
3FFFFF
100000
080000
040000
ENDCHAR
STARTCHAR less_hyphen_hyphen.liga
ENCODING -1
SWIDTH 473 0
DWIDTH 9 0
BBX 24 11 -16 1
BITMAP
040000
080000
100000
200000
400000
FFFFFF
400000
200000
100000
080000
040000
ENDCHAR
STARTCHAR less_hyphen.liga
ENCODING -1
SWIDTH 473 0
DWIDTH 9 0
BBX 15 11 -7 1
BITMAP
0400
0800
1000
2000
4000
FFFE
4000
2000
1000
0800
0400
ENDCHAR
STARTCHAR less_exclam_hyphen_hyphen.liga
ENCODING -1
SWIDTH 473 0
DWIDTH 9 0
BBX 33 12 -25 0
BITMAP
0410000000
0810000000
1010000000
2010000000
4010000000
FF93FFFF80
4010000000
2010000000
1000000000
0810000000
0410000000
0010000000
ENDCHAR
STARTCHAR less_equal_greater.liga
ENCODING -1
SWIDTH 473 0
DWIDTH 9 0
BBX 24 11 -16 1
BITMAP
040020
080010
100008
3FFFFC
400002
800001
400002
3FFFFC
100008
080010
040020
ENDCHAR
STARTCHAR equal_equal.liga
ENCODING -1
SWIDTH 473 0
DWIDTH 9 0
BBX 15 6 -7 3
BITMAP
FFFE
0000
0000
0000
0000
FFFE
ENDCHAR
STARTCHAR equal_equal_equal.liga
ENCODING -1
SWIDTH 473 0
DWIDTH 9 0
BBX 24 7 -16 2
BITMAP
FE7E7F
000000
000000
FE7E7F
000000
000000
FE7E7F
ENDCHAR
STARTCHAR exclam_equal.liga
ENCODING -1
SWIDTH 473 0
DWIDTH 9 0
BBX 15 12 -7 0
BITMAP
0020
0020
0040
FFFE
0080
0100
0100
0200
FFFE
0400
0800
0800
ENDCHAR
STARTCHAR exclam_equal_equal.liga
ENCODING -1
SWIDTH 473 0
DWIDTH 9 0
BBX 24 13 -16 -1
BITMAP
000100
000100
000200
FE7E7F
000400
000800
FE7E7F
001000
002000
FE7E7F
004000
008000
008000
ENDCHAR
ENDFONT
